<?xml version="1.0" encoding="UTF-8"?> <svg xmlns="http://www.w3.org/2000/svg" width="50.193" height="48" viewBox="0 0 50.193 48"><g id="Group_247103" data-name="Group 247103" transform="translate(-339.74 -41.035)"><path id="Path_156" data-name="Path 156" d="M341.5,90.442a1.972,1.972,0,0,0-.256.08c-2.383,1.194-4.769,2.384-7.141,3.6a.7.7,0,0,0-.283.532c-.018,2.959-.013,5.919-.011,8.878,0,.13.023.258.039.451,2.331-1.253,4.606-2.462,6.865-3.7a1.506,1.506,0,0,0,.783-1.379c.01-2.8,0-5.6,0-8.465" transform="translate(38.848 -36.823)" fill="#fff"></path><path id="Path_157" data-name="Path 157" d="M330.565,108.681c-.214.095-.375.159-.529.236-2.24,1.122-4.476,2.255-6.725,3.358a.684.684,0,0,0-.451.725c.016,2.906.008,5.812.01,8.718,0,.15.016.3.026.468a1.031,1.031,0,0,0,.192-.051q3.269-1.746,6.537-3.5a1.71,1.71,0,0,0,.94-1.619q0-2.888,0-5.776v-2.562" transform="translate(39.52 -37.942)" fill="#fff"></path><path id="Path_159" data-name="Path 159" d="M323.787,90.391c0,2.925-.013,5.759.009,8.593a1.659,1.659,0,0,0,1.023,1.457q3.131,1.666,6.261,3.337c.113.059.237.1.4.161,0-3.169.006-6.271-.015-9.373a.712.712,0,0,0-.35-.5c-.989-.526-2-1.016-3-1.517l-4.326-2.163" transform="translate(39.463 -36.82)" fill="#fff"></path><path id="Path_160" data-name="Path 160" d="M320.543,122.245c0-3.229,0-6.349-.017-9.468,0-.161-.222-.382-.392-.469-2.282-1.161-4.575-2.3-6.865-3.448-.121-.06-.252-.1-.421-.171v.42c0,2.6.007,5.208-.006,7.81a1.862,1.862,0,0,0,1.087,1.8c1.654.866,3.3,1.755,4.943,2.634.53.283,1.061.563,1.672.887" transform="translate(40.135 -37.943)" fill="#fff"></path><path id="Path_161" data-name="Path 161" d="M342.411,122.249c0-3.154-.007-6.2.008-9.25a.687.687,0,0,0-.451-.727c-2.265-1.115-4.518-2.256-6.775-3.387-.138-.069-.284-.12-.44-.186a1.146,1.146,0,0,0-.036.188c0,2.746-.008,5.492,0,8.238a1.678,1.678,0,0,0,.978,1.541l2.118,1.129,4.6,2.454" transform="translate(38.792 -37.943)" fill="#fff"></path><path id="Path_162" data-name="Path 162" d="M340.123,88.5c-2.4-1.209-4.749-2.4-7.105-3.565a1.652,1.652,0,0,0-1.538.123q-3.209,1.635-6.424,3.255c-.114.058-.223.123-.358.2a1.378,1.378,0,0,0,.168.132c2.415,1.213,4.828,2.429,7.253,3.622a.817.817,0,0,0,.625-.038c2.33-1.148,4.649-2.315,6.97-3.48.123-.061.236-.142.409-.248" transform="translate(39.407 -36.476)" fill="#fff"></path><path id="Path_163" data-name="Path 163" d="M329.219,106.777c-2.021-1.022-3.942-1.989-5.859-2.965-2-1.019-1.839-1-3.785-.007-1.929.982-3.862,1.954-5.826,2.947a1.522,1.522,0,0,0,.2.155c2.415,1.213,4.828,2.43,7.253,3.622a.826.826,0,0,0,.625-.056c1.9-.933,3.79-1.885,5.683-2.833.537-.269,1.073-.543,1.707-.864" transform="translate(40.079 -37.597)" fill="#fff"></path><path id="Path_164" data-name="Path 164" d="M351.016,106.781a1.351,1.351,0,0,0-.151-.112q-3.355-1.7-6.712-3.4a1.806,1.806,0,0,0-1.736.037c-2.123,1.082-4.252,2.152-6.379,3.228-.13.066-.254.143-.4.226a1.138,1.138,0,0,0,.16.131c2.415,1.213,4.828,2.429,7.253,3.622a.812.812,0,0,0,.625-.033c2.329-1.148,4.649-2.316,6.97-3.479.123-.062.237-.142.373-.224" transform="translate(38.736 -37.598)" fill="#fff"></path><path id="Path_165" data-name="Path 165" d="M330.528,91.786c-2.427-1.194-4.837-2.409-7.256-3.621-.044-.023-.08-.067-.169-.133.138-.075.244-.142.36-.2q3.216-1.623,6.426-3.252a1.733,1.733,0,0,1,1.354-.2c0-1.908,0-3.8-.014-5.693a1.678,1.678,0,0,0-1.761-1.638c-1.869-.008-3.741,0-5.609-.013-.342,0-.488.089-.573.444-.461,1.921-.949,3.838-1.437,5.755a.931.931,0,0,1-1.092.857q-5.771.007-11.542,0c-.67,0-.918-.2-1.087-.865-.47-1.868-.945-3.732-1.389-5.6-.1-.435-.262-.6-.736-.59-1.708.036-3.418.014-5.13.014-1.536,0-2.131.594-2.131,2.134v43.743c0,.142,0,.284,0,.426a1.69,1.69,0,0,0,1.677,1.673h.7c.346,0,.7,0,1.043,0,.883,0,1.767,0,2.654,0h9.59v-.045H328.8a2.422,2.422,0,0,0,2.44-2.4V91.7c-.026.014-.058.027-.084.04a.811.811,0,0,1-.625.04M305.589,106.18A3.426,3.426,0,1,1,309,102.732a3.43,3.43,0,0,1-3.412,3.449m0-10.282A3.426,3.426,0,1,1,309,92.451a3.432,3.432,0,0,1-3.412,3.448" transform="translate(41 -36)" fill="#abffc7"></path><path id="Path_166" data-name="Path 166" d="M341.5,90.442c0,2.868.006,5.667,0,8.465a1.506,1.506,0,0,1-.783,1.379c-2.259,1.235-4.534,2.444-6.865,3.7-.017-.193-.039-.322-.039-.451,0-2.96-.007-5.919.011-8.878a.7.7,0,0,1,.283-.532c2.372-1.215,4.758-2.4,7.141-3.6a1.972,1.972,0,0,1,.256-.08" transform="translate(38.848 -36.823)" fill="#7f6bf6"></path><path id="Path_167" data-name="Path 167" d="M330.565,108.681v2.562q0,2.888,0,5.776a1.71,1.71,0,0,1-.94,1.619q-3.265,1.753-6.537,3.5a1.031,1.031,0,0,1-.192.051c-.01-.167-.026-.318-.026-.468,0-2.906.006-5.812-.01-8.718a.684.684,0,0,1,.451-.725c2.249-1.1,4.485-2.237,6.725-3.358.154-.077.315-.141.529-.236" transform="translate(39.52 -37.942)" fill="#5b3deb"></path><path id="Path_169" data-name="Path 169" d="M323.787,90.391l4.326,2.163c1,.5,2.01.991,3,1.517a.712.712,0,0,1,.35.5c.021,3.1.015,6.2.015,9.373-.16-.065-.284-.1-.4-.161q-3.131-1.667-6.261-3.337a1.659,1.659,0,0,1-1.023-1.457c-.023-2.834-.009-5.668-.009-8.593" transform="translate(39.463 -36.82)" fill="#5b3deb"></path><path id="Path_170" data-name="Path 170" d="M320.543,122.245c-.611-.324-1.141-.6-1.672-.887-1.646-.879-3.289-1.767-4.943-2.634a1.862,1.862,0,0,1-1.087-1.8c.012-2.6.006-5.207.006-7.81v-.42c.17.069.3.111.421.171,2.29,1.145,4.583,2.286,6.865,3.448.171.087.389.309.392.469.022,3.119.017,6.239.017,9.468" transform="translate(40.135 -37.943)" fill="#5b3deb"></path><path id="Path_171" data-name="Path 171" d="M342.411,122.249l-4.6-2.454-2.118-1.129a1.678,1.678,0,0,1-.978-1.541c-.009-2.746,0-5.492,0-8.238a1.146,1.146,0,0,1,.036-.188c.156.066.3.116.44.186,2.257,1.13,4.51,2.271,6.775,3.387a.687.687,0,0,1,.451.727c-.015,3.048-.008,6.1-.008,9.25" transform="translate(38.792 -37.943)" fill="#7f6bf6"></path><path id="Path_172" data-name="Path 172" d="M308.971,77.064h13.283c-.443,1.778-.878,3.525-1.318,5.294H310.3l-1.325-5.294" transform="translate(40.372 -36.002)" fill="#abffc7"></path><path id="Path_173" data-name="Path 173" d="M332.834,84.861c0,.879,0,1.762,0,2.649v4.673c-.026.014-.057.027-.084.04a.81.81,0,0,1-.625.039c-2.427-1.193-4.837-2.409-7.256-3.62a2.05,2.05,0,0,1-.168-.133c.137-.075.244-.142.359-.2q3.214-1.623,6.425-3.252a1.733,1.733,0,0,1,1.353-.2" transform="translate(39.407 -36.476)" fill="#5b3deb"></path><path id="Path_174" data-name="Path 174" d="M340.657,88.5c-.173.1-.288.187-.413.244-2.294,1.154-4.579,2.307-6.882,3.439V87.514c0-.888,0-1.77,0-2.65a1.072,1.072,0,0,1,.182.071c2.356,1.167,4.7,2.356,7.108,3.568" transform="translate(38.875 -36.48)" fill="#7f6bf6"></path><path id="Path_175" data-name="Path 175" d="M329.219,106.777c-.635.321-1.17.594-1.707.864-1.893.948-3.784,1.9-5.683,2.833a.826.826,0,0,1-.625.056c-2.424-1.192-4.838-2.409-7.253-3.622a1.522,1.522,0,0,1-.2-.155c1.964-.993,3.9-1.965,5.826-2.947,1.946-.99,1.781-1.013,3.785.007,1.917.976,3.838,1.943,5.859,2.965" transform="translate(40.079 -37.597)" fill="#5b3deb"></path><path id="Path_176" data-name="Path 176" d="M351.016,106.781c-.136.083-.25.162-.373.224-2.321,1.164-4.642,2.332-6.97,3.479a.812.812,0,0,1-.625.033c-2.424-1.193-4.838-2.409-7.253-3.622a1.138,1.138,0,0,1-.16-.131c.148-.084.273-.16.4-.226,2.127-1.076,4.256-2.146,6.379-3.228a1.806,1.806,0,0,1,1.736-.037q3.355,1.7,6.712,3.4a1.351,1.351,0,0,1,.151.112" transform="translate(38.736 -37.598)" fill="#7f6bf6"></path><path id="Path_168" data-name="Path 168" d="M352.6,108.681v3.44q0,2.542,0,5.082a1.781,1.781,0,0,1-1.008,1.682l-6.537,3.491c-.077.041-.159.071-.289.128-.012-.2-.028-.354-.028-.507,0-2.97.006-5.939-.011-8.908a.7.7,0,0,1,.463-.738c2.3-1.129,4.581-2.285,6.87-3.431.157-.08.322-.144.539-.24" transform="translate(37.334 -38.199)" fill="#7f6bf6"></path></g></svg> 